PathFileType	4	(X/Y/Z)	S00_P01_T02_Participants1-2_P1_0-100.trc
DataRate	CameraRate	NumFrames	NumMarkers	Units	OrigDataRate	OrigDataStartFrame	OrigNumFrames
60	60	7	21	m	60	62	100
Frame#	Time	RHip			RKnee			RAnkle			RBigToe			RSmallToe			RHeel			LHip			LKnee			LAnkle			LBigToe			LSmallToe			LHeel			Neck			Head			Nose			RShoulder			RElbow			RWrist			LShoulder			LElbow			LWrist		
		X1	Y1	Z1	X2	Y2	Z2	X3	Y3	Z3	X4	Y4	Z4	X5	Y5	Z5	X6	Y6	Z6	X7	Y7	Z7	X8	Y8	Z8	X9	Y9	Z9	X10	Y10	Z10	X11	Y11	Z11	X12	Y12	Z12	X13	Y13	Z13	X14	Y14	Z14	X15	Y15	Z15	X16	Y16	Z16	X17	Y17	Z17	X18	Y18	Z18	X19	Y19	Z19	X20	Y20	Z20	X21	Y21	Z21
63	1.05	-1.05094008053823	0.8831821781143043	-0.9744273342920413	-0.8757339598677507	0.8725613030842926	-0.7314625734570182	-0.8498726422854106	0.8351533112260265	-0.9625586731334107	-0.7440641630923672	0.8281011204720803	-1.0272052065299524	-0.766954096124143	0.8074946259986602	-1.0232369899759912	-0.8664770948849588	0.8386340988030659	-1.0076499549375866	-1.051502314163325	0.8838023507386928	-1.1186022884541436	-0.8779747816658225	0.8750563877315934	-1.3568552395056421	-0.8896552687978051	0.8529880634545973	-1.1239888705092957	-0.7891409890739087	0.8447796049886865	-1.058064735148003	-0.8128726722051586	0.8249890739532458	-1.0619345494847108	-0.9114651040954266	0.8596275473353996	-1.0794035383641767	-1.0726232103143463	1.293122069878006	-1.0459287298383093	-1.0377041147252373	1.4507920078970966	-1.0580448906399647	-0.9873490357870908	1.356284697343712	-1.0445789955948168	-1.0798395086666468	1.2400545027164036	-0.9139463470447706	-1.0457743873926268	1.0871123946500987	-0.7983161762423361	-0.9179469748700181	0.9652936224998697	-0.8785462241261527	-1.0807695383349445	1.2411335305898887	-1.1784307121131155	-1.0443255806856537	1.0688000350601796	-1.2647396951208572	-0.905188822411931	0.9695197629016387	-1.1685615365368918
64	1.0666666666666669	-1.0509397517424603	0.882972981643961	-0.9744276481160008	-0.8757335490901833	0.8723521504961311	-0.7314633022532967	-0.849789588359747	0.8349090567213142	-0.962545400005514	-0.7439590731461582	0.8278527025211228	-1.0271549932431292	-0.76684932273981	0.8072456509983963	-1.023191369934992	-0.866379531562294	0.8383823710115837	-1.0076425419775128	-1.0515020273758877	0.8835931735578136	-1.1186025755437508	-0.877974612393799	0.8748472913367935	-1.3568557000793793	-0.8896550162858268	0.8527789310284393	-1.1239893590268606	-0.7891407211885821	0.844570485804969	-1.0580653878663409	-0.8128724031585414	0.8247799605907938	-1.061935166711077	-0.9114648323547276	0.8594184023191089	-1.079404015038927	-1.0726228040377255	1.2929126571813587	-1.0459292439394436	-1.037703100783671	1.4505832046461893	-1.0580443826417638	-0.9873486436077357	1.3560752737924258	-1.044579633942354	-1.0798391562302794	1.2398450830112335	-0.9139467877663904	-1.0457935538109013	1.0869956162177035	-0.7982045421980862	-0.9180662383772489	0.9650465143976801	-0.8783986206375677	-1.0807691870687286	1.2409241716842832	-1.178431261705354	-1.0443253129004475	1.0685907963348948	-1.2647401309633364	-0.905199484440812	0.9692049618785584	-1.1686696059811146
65	1.0833333333333333	-1.05093984145909	0.8830300643904374	-0.9744275624866657	-0.8757336611779086	0.8724092212698358	-0.7314631033825296	-0.8498122507826837	0.8349757050485475	-0.9625490250469355	-0.7439877472964017	0.8279204862830831	-1.0271686988028235	-0.7668779106602346	0.807313586826265	-1.0232038221514206	-0.8664061533517311	0.8384510585652234	-1.0076445685702438	-1.0515021056296947	0.8836502510410448	-1.1186024972140596	-0.8779746585828523	0.8749043467772967	-1.3568555744158175	-0.8896550851884123	0.8528359963002848	-1.123989225730789	-0.7891407942867057	0.8446275474637599	-1.0580652097616567	-0.8128724765736176	0.8248370206610959	-1.0619349982912731	-0.9114649065039713	0.8594754710262532	-1.0794038849735463	-1.072622921016398	1.2929697974756742	-1.0459291077956059	-1.0377033774568443	1.450640180103899	-1.0580445212702332	-0.9873487496360851	1.3561324187334616	-1.0445794590127615	-1.0798392080900714	1.2399022359886263	-0.9139466352911232	-1.0457883226678846	1.0870274728644223	-0.7982349974780268	-0.9180336875216727	0.9651139304072105	-0.8784389099085188	-1.080769282909892	1.240981298754019	-1.1784311117659285	-1.0443253859660704	1.0686478906118273	-1.2647400120564565	-0.9051965673709326	0.9692908547468947	-1.1686401122141084
66	1.1	-1.0509403492146012	0.8833531198627939	-0.974427077834778	-0.8757342955268581	0.8727322089661174	-0.7314619779811118	-0.8499405102390309	0.8353529045255155	-0.962569494759363	-0.7441500461954799	0.8283041205931995	-1.0272462074112945	-0.7670397194351881	0.8076980808122176	-1.0232742375523096	-0.8665568172100674	0.8388397986702928	-1.0076559835549141	-1.0515025485143334	0.8839732767235363	-1.118602053807035	-0.8779749199812429	0.8752272476950629	-1.3568548630673818	-0.889655475130586	0.8531589528636526	-1.123988471293844	-0.7891412079638199	0.8449504835741402	-1.0580642017860145	-0.8128728920434389	0.8251599477823842	-1.061934045122178	-0.9114653261423051	0.85979844703326	-1.0794031488320306	-1.0726235569862543	1.2932931848469018	-1.0459283194117734	-1.0377049432350929	1.4509626282744696	-1.0580453056480303	-0.9873493534293145	1.3564558253328118	-1.044578471568185	-1.0798396533349395	1.2402256570470052	-0.9139458825075691	-1.045758735273411	1.0872078802736642	-0.7984074409937258	-0.9178495787274183	0.9654956296860102	-0.8786667376354631	-1.0807698254243896	1.24130460506924	-1.1784302628274974	-1.044325799532835	1.0689710113329423	-1.2647393388288797	-0.9051801681488345	0.9697770418116406	-1.1684732680144851
67	1.1166666666666667	-1.0509412723292384	0.8839404135475558	-0.9744261965984289	-0.8757354487186424	0.8733193793644988	-0.7314599324782769	-0.8501736913270881	0.8360386646724641	-0.9626065073387646	-0.7444451806969271	0.8290016177059423	-1.0273868648856923	-0.7673339537231435	0.808397136710921	-1.0234020000175328	-0.866830713505919	0.8395465379602121	-1.0076764985413855	-1.0515033537071514	0.8845605162395134	-1.11860124725964	-0.877975395164678	0.8758142603291018	-1.3568535691633357	-0.8896561839906301	0.8537460666832976	-1.1239870995242536	-0.7891419599315177	0.8455375601890517	-1.0580623693273523	-0.8128736472655383	0.825747008059373	-1.061932312279493	-0.9114660890015015	0.8603855962081269	-1.0794018103727605	-1.072624696677199	1.2938810859450334	-1.0459268734561575	-1.0377077895756108	1.4515488174490658	-1.0580467308130728	-0.987350452787561	1.3570437570625922	-1.0445766761682531	-1.079840469437554	1.240813614112854	-0.9139445177113864	-1.0457050251018947	1.0875363590156961	-0.7987212983256325	-0.9175153611648056	0.9661902434258374	-0.8790801017357937	-1.0807708121539457	1.2418923547643703	-1.1784287179113244	-1.0443265516211733	1.069558423605135	-1.2647381137116664	-0.9051508331415623	0.9706612588628335	-1.1681702764779323
68	1.1333333333333333	-1.0509426059313858	0.8847887922086919	-0.9744249232117639	-0.8757371145398343	0.8741675797633305	-0.7314569785534839	-0.85051056549253	0.8370293659704948	-0.962659518343813	-0.7448717138122081	0.8300093622173546	-1.0275894870254365	-0.7677591654713247	0.8094071237503386	-1.0235859945655115	-0.8672263699013557	0.8405675425752962	-1.0077055942911908	-1.0515045169856085	0.885408816621679	-1.1186000811006773	-0.8779760815454611	0.8766622328129904	-1.3568516984055219	-0.8896572079129976	0.854594185393722	-1.123985117349069	-0.7891430460319687	0.8463856251038244	-1.0580597221804295	-0.812874738056624	0.8265950493814307	-1.0619298089906626	-0.9114671909593779	0.8612337660092979	-1.0793998764311337	-1.0726263111293137	1.2947303499342995	-1.0459247594563363	-1.0377119009515658	1.452395599500304	-1.0580487877580627	-0.9873520441035504	1.3578930569292207	-1.044574081439712	-1.0798416580588623	1.2416629494076454	-0.9139425506624974	-1.0456276152495507	1.088012027646092	-0.799175514860851	-0.9170336606194127	0.9671952578178804	-0.8796753757884781	-1.080772238621153	1.2427413921453014	-1.1784264825399886	-1.0443276386285913	1.0704069735027473	-1.2647363411470982	-0.9051095455717211	0.9719393798081092	-1.1677333200950701
69	1.15	-1.050944342983677	0.8858937008076466	-0.9744232640844674	-0.875739284017015	0.8752722558996824	-0.7314531330590749	-0.8509493564028905	0.8383197776457229	-0.9627277509154017	-0.7454275643507345	0.8313221273487214	-1.0278523747317843	-0.7683132579573783	0.8107227931433053	-1.0238246221406246	-0.8677416584487863	0.8418974165338079	-1.007742532213186	-1.0515060322496979	0.8865136232201983	-1.118598560444973	-0.8779769753890533	0.877766612090394	-1.3568492590604182	-0.8896585413317242	0.8556987552165153	-1.123982534783857	-0.7891444602642497	0.8474901247735316	-1.0580562744940036	-0.8128761583792175	0.8276995183392934	-1.061926548585635	-0.9114686260641394	0.8623384024036702	-1.0793973568879636	-1.0726283559121155	1.29583642586011	-1.0459219606012962	-1.037717254941358	1.4534984267921534	-1.0580514635022402	-0.9873541227576073	1.3589991643201536	-1.0445707003773184	-1.079843305275389	1.2427690836894214	-0.9139400564267128	-1.0455271138226876	1.088633590317801	-0.7997685436605033	-0.9164082502644953	0.9685069841022871	-0.8804473517038292	-1.0807740983388672	1.2438471586225512	-1.1784235647600052	-1.044329055341932	1.071512104992277	-1.2647340276043653	-0.9050577028675514	0.9736054217788201	-1.1671655408813815
